<?xml version="1.0" encoding="UTF-8"?>
<svg version="1.1" xmlns="http://www.w3.org/2000/svg" width="512" height="512">
<path d="M0 0 C0.90965012 -0.0049649 1.81930023 -0.00992981 2.7565155 -0.01504517 C5.76069909 -0.02962774 8.76482982 -0.03646336 11.76904297 -0.04199219 C13.86546835 -0.04774817 15.96189372 -0.05350584 18.05831909 -0.05926514 C22.45473474 -0.06976494 26.85113217 -0.07561385 31.24755859 -0.07910156 C36.8592993 -0.08457495 42.47079601 -0.10858269 48.0824604 -0.13707352 C52.41497481 -0.1557738 56.74743141 -0.16090949 61.07998276 -0.16243744 C63.14747319 -0.16544934 65.21496296 -0.173428 67.28241348 -0.18662262 C82.55790347 -0.27712949 95.77192348 -0.12460081 107.63623047 10.66113281 C108.37873047 11.48613281 109.12123047 12.31113281 109.88623047 13.16113281 C110.56685547 13.90363281 111.24748047 14.64613281 111.94873047 15.41113281 C116.12027956 21.3320412 118.99005771 28.06739243 119.03340149 35.36451721 C119.04413445 36.61104317 119.04413445 36.61104317 119.05508423 37.88275146 C119.05777313 38.78616272 119.06046204 39.68957397 119.06323242 40.62036133 C119.06980362 41.57863327 119.07637482 42.53690521 119.08314514 43.5242157 C119.10285668 46.69615766 119.11453797 49.86805224 119.12451172 53.04003906 C119.12858725 54.12589735 119.13266277 55.21175564 119.1368618 56.33051872 C119.15771655 62.08142786 119.17201909 67.83231319 119.18139648 73.58325195 C119.19244054 79.50560279 119.22681935 85.4275758 119.26656818 91.34979343 C119.29279511 95.9182146 119.30109388 100.48654672 119.30467796 105.05503654 C119.30953066 107.23697388 119.3211068 109.41890758 119.33971596 111.60077095 C119.45288696 125.75293697 119.47652093 137.73174672 109.92919922 149.09082031 C101.67938808 157.45104957 92.19168144 161.43922966 80.48155212 161.5788269 C79.60906326 161.57432526 78.7365744 161.56982361 77.83764648 161.56518555 C76.88825195 161.5720488 75.93885742 161.57891205 74.96069336 161.58598328 C71.85368465 161.60413428 68.74718654 161.60043062 65.64013672 161.59472656 C63.46117491 161.59929383 61.28221453 161.60460102 59.10325623 161.61061096 C54.54835132 161.61951902 49.99362196 161.61714502 45.4387207 161.60717773 C39.62409989 161.5956888 33.81008647 161.6159107 27.99554539 161.64509487 C23.49916281 161.66350821 19.00292444 161.6631542 14.5065136 161.65745735 C12.36366867 161.65730478 10.22081358 161.66329573 8.07800484 161.67574883 C-6.82186319 161.75015521 -19.22410064 161.41582535 -30.73876953 150.72363281 C-31.52251953 149.87800781 -32.30626953 149.03238281 -33.11376953 148.16113281 C-33.79439453 147.43925781 -34.47501953 146.71738281 -35.17626953 145.97363281 C-40.90021382 137.66468142 -42.25964577 128.9174487 -42.29077148 119.07910156 C-42.29734268 118.17266403 -42.30391388 117.2662265 -42.3106842 116.33232117 C-42.33036332 113.33775743 -42.3420705 110.34324383 -42.35205078 107.34863281 C-42.35612631 106.32135071 -42.36020184 105.2940686 -42.36440086 104.23565674 C-42.38524298 98.79366255 -42.39955032 93.3516934 -42.40893555 87.90966797 C-42.41997005 82.31598644 -42.45434129 76.72270597 -42.49410725 71.12916565 C-42.52038223 66.80514844 -42.52863722 62.48122501 -42.53221703 58.15713501 C-42.53705826 56.09686589 -42.54860104 54.03660027 -42.56725502 51.97640991 C-42.70464482 35.79122836 -41.99961669 22.51570549 -30.30126953 10.26269531 C-21.62951325 1.97557338 -11.59404375 0.01519292 0 0 Z M-7.61270142 34.66220093 C-9.76407843 38.243747 -9.66427122 41.58924813 -9.61547852 45.64575195 C-9.6208815 46.49983139 -9.62628448 47.35391083 -9.6318512 48.23387146 C-9.6443517 51.05503055 -9.62784025 53.87517185 -9.60986328 56.69628906 C-9.61001822 58.65636753 -9.61150642 60.61644631 -9.61427307 62.57652283 C-9.61565761 66.68307041 -9.60308865 70.78926896 -9.58032227 74.89575195 C-9.55191882 80.16423393 -9.55467933 85.43213669 -9.56741238 90.70066166 C-9.57436058 94.74723779 -9.56659041 98.79367959 -9.55415535 102.84023857 C-9.54963381 104.7831413 -9.54931016 106.72605842 -9.55322075 108.66896248 C-9.55612503 111.38157958 -9.53966444 114.0933926 -9.51782227 116.8059082 C-9.52232391 117.61170319 -9.52682556 118.41749817 -9.53146362 119.24771118 C-9.49284587 122.12821839 -9.41721636 124.55262654 -8.1174469 127.15907288 C-4.78081132 128.82775911 -1.29910346 128.57644276 2.34912109 128.54931641 C3.21280807 128.55457336 4.07649506 128.55983032 4.96635437 128.56524658 C7.82524628 128.57846539 10.68358276 128.56970187 13.54248047 128.55957031 C15.52640897 128.56159051 17.51033674 128.56450149 19.4942627 128.56826782 C23.65379908 128.57269372 27.8131423 128.56625152 31.97265625 128.55224609 C37.3095258 128.53515411 42.64594278 128.54499386 47.98279572 128.56296349 C52.07997052 128.5737941 56.17703769 128.57035829 60.2742157 128.56258011 C62.24224399 128.5605761 64.210282 128.56304437 66.17829895 128.57001877 C68.92690998 128.57762135 71.67478385 128.5660459 74.42333984 128.54931641 C75.64841499 128.55842545 75.64841499 128.55842545 76.89823914 128.56771851 C79.80385239 128.53488606 82.25872238 128.47269451 84.89089966 127.165802 C86.54903874 123.82618839 86.30153193 120.34532619 86.27441406 116.69824219 C86.27967102 115.83455521 86.28492798 114.97086823 86.29034424 114.08100891 C86.30356305 111.222117 86.29479953 108.36378053 86.28466797 105.50488281 C86.28668816 103.52095431 86.28959914 101.53702654 86.29336548 99.55310059 C86.29779138 95.3935642 86.29134917 91.23422098 86.27734375 87.07470703 C86.26025177 81.73783748 86.27009152 76.40142051 86.28806114 71.06456757 C86.29889176 66.96739276 86.29545595 62.87032559 86.28767776 58.77314758 C86.28567376 56.80511929 86.28814203 54.83708129 86.29511642 52.86906433 C86.302719 50.1204533 86.29114355 47.37257943 86.27441406 44.62402344 C86.28048676 43.80730667 86.28655945 42.9905899 86.29281616 42.14912415 C86.25995221 39.24072311 86.20014126 36.78881577 84.88417053 34.15745544 C81.57786523 32.50868386 78.14478956 32.73689134 74.53100586 32.75708008 C73.67867874 32.75021683 72.82635162 32.74335358 71.94819641 32.73628235 C69.12659108 32.717959 66.30553886 32.72185977 63.48388672 32.72753906 C61.52477334 32.7229798 59.56566156 32.717675 57.60655212 32.71165466 C53.49829618 32.7027126 49.39023451 32.70515901 45.28198242 32.71508789 C40.01461716 32.72657692 34.74792234 32.70637259 29.48064518 32.67717075 C25.43403353 32.65883285 21.38758324 32.65909644 17.34094048 32.66480827 C15.39884946 32.66496179 13.45674771 32.65889211 11.51469612 32.6465168 C8.79965175 32.63165464 6.08585468 32.64224846 3.37084961 32.65942383 C2.56707886 32.64975586 1.76330811 32.64008789 0.93518066 32.63012695 C-2.40648989 32.67443933 -4.72400369 32.92700675 -7.61270142 34.66220093 Z " fill="#000000" transform="translate(68.11376953125,281.8388671875)"/>
<path d="M0 0 C0.82404831 -0.00571014 1.64809662 -0.01142029 2.49711609 -0.01730347 C3.84056343 -0.01898026 3.84056343 -0.01898026 5.21115112 -0.02069092 C6.16127579 -0.02565582 7.11140045 -0.03062073 8.09031677 -0.03573608 C11.23460618 -0.05034337 14.37884507 -0.05715847 17.52316284 -0.06268311 C19.71309409 -0.06843714 21.90302532 -0.07419484 24.09295654 -0.07995605 C28.68785842 -0.09046293 33.28274283 -0.09630719 37.87765503 -0.09979248 C43.74846997 -0.10526681 49.61905177 -0.12927361 55.48979378 -0.15776443 C60.01614034 -0.17644681 64.54243147 -0.18159947 69.06881332 -0.18312836 C71.23202662 -0.18614438 73.39523919 -0.1941372 75.55841446 -0.20731354 C78.59518052 -0.22448587 81.63138664 -0.22246614 84.66818237 -0.21600342 C85.55166855 -0.2252182 86.43515472 -0.23443298 87.34541321 -0.243927 C98.09466217 -0.17274205 106.69628515 3.11586289 114.82785034 10.14044189 C126.92504453 22.39954881 126.42906342 36.55166175 126.35910034 52.70294189 C126.36179936 54.90289481 126.36568517 57.10284655 126.37069702 59.30279541 C126.37657275 63.89885896 126.36809119 68.49461016 126.34933472 73.09063721 C126.3265467 78.95794035 126.33968011 84.82451138 126.36362457 90.69178772 C126.37813458 95.23021886 126.37345271 99.76847875 126.3631134 104.30691528 C126.36046049 106.46929004 126.36366486 108.63168076 126.37303162 110.79403687 C126.42357535 125.73912821 126.11502827 138.21578874 115.39035034 149.76544189 C114.54472534 150.54919189 113.69910034 151.33294189 112.82785034 152.14044189 C112.10597534 152.82106689 111.38410034 153.50169189 110.64035034 154.20294189 C102.33139895 159.92688619 93.58416623 161.28631814 83.74581909 161.31744385 C82.83938156 161.32401505 81.93294403 161.33058624 80.9990387 161.33735657 C78.00447496 161.35703569 75.00996136 161.36874286 72.01535034 161.37872314 C70.98806824 161.38279867 69.96078613 161.3868742 68.90237427 161.39107323 C63.46038008 161.41191534 58.01841093 161.42622269 52.5763855 161.43560791 C46.98270397 161.44664241 41.3894235 161.48101365 35.79588318 161.52077961 C31.47186597 161.54705459 27.14794254 161.55530959 22.82385254 161.55888939 C20.76358342 161.56373063 18.7033178 161.5752734 16.64312744 161.59392738 C0.45794589 161.73131718 -12.81757698 161.02628906 -25.07058716 149.32794189 C-33.35770909 140.65618561 -35.31808955 130.62071612 -35.33328247 119.02667236 C-35.33824738 118.11702225 -35.34321228 117.20737213 -35.34832764 116.27015686 C-35.36291021 113.26597327 -35.36974583 110.26184254 -35.37527466 107.25762939 C-35.38103064 105.16120402 -35.38678831 103.06477864 -35.39254761 100.96835327 C-35.40304741 96.57193762 -35.40889632 92.17554019 -35.41238403 87.77911377 C-35.41785742 82.16737306 -35.44186516 76.55587636 -35.47035599 70.94421196 C-35.48905627 66.61169755 -35.49419196 62.27924095 -35.49571991 57.94668961 C-35.49873181 55.87919917 -35.50671047 53.8117094 -35.51990509 51.74425888 C-35.61041196 36.46876889 -35.45788328 23.25474888 -24.67214966 11.39044189 C-23.84714966 10.64794189 -23.02214966 9.90544189 -22.17214966 9.14044189 C-21.42964966 8.45981689 -20.68714966 7.77919189 -19.92214966 7.07794189 C-14.01683913 2.91738221 -7.28150818 0.03036234 0 0 Z M-1.17582703 34.14250183 C-2.82459861 37.44880713 -2.59639113 40.88188281 -2.57620239 44.4956665 C-2.58306564 45.34799362 -2.58992889 46.20032074 -2.59700012 47.07847595 C-2.61532347 49.90008128 -2.6114227 52.7211335 -2.60574341 55.54278564 C-2.61030267 57.50189903 -2.61560747 59.4610108 -2.62162781 61.42012024 C-2.63056987 65.52837618 -2.62812346 69.63643785 -2.61819458 73.74468994 C-2.60670555 79.0120552 -2.62690988 84.27875003 -2.65611172 89.54602718 C-2.67444962 93.59263883 -2.67418604 97.63908912 -2.6684742 101.68573189 C-2.66832068 103.6278229 -2.67439036 105.56992465 -2.68676567 107.51197624 C-2.70162783 110.22702061 -2.69103401 112.94081768 -2.67385864 115.65582275 C-2.68352661 116.45959351 -2.69319458 117.26336426 -2.70315552 118.0914917 C-2.65884314 121.43316226 -2.40627572 123.75067605 -0.67108154 126.63937378 C2.91046453 128.79075079 6.25596566 128.69094359 10.31246948 128.64215088 C11.16654892 128.64755386 12.02062836 128.65295685 12.90058899 128.65852356 C15.72174808 128.67102407 18.54188938 128.65451261 21.36300659 128.63653564 C23.32308506 128.63669059 25.28316384 128.63817879 27.24324036 128.64094543 C31.34978794 128.64232997 35.45598649 128.62976101 39.56246948 128.60699463 C44.83095146 128.57859119 50.09885422 128.5813517 55.36737919 128.59408474 C59.41395532 128.60103295 63.46039712 128.59326277 67.5069561 128.58082771 C69.44985883 128.57630618 71.39277595 128.57598252 73.33568001 128.57989311 C76.04829711 128.5827974 78.76011013 128.5663368 81.47262573 128.54449463 C82.27842072 128.54899628 83.0842157 128.55349792 83.91442871 128.55813599 C86.79493592 128.51951824 89.21934407 128.44388872 91.82579041 127.14411926 C93.49447664 123.80748368 93.24316029 120.32577582 93.21603394 116.67755127 C93.22129089 115.81386429 93.22654785 114.95017731 93.23196411 114.06031799 C93.24518292 111.20142608 93.2364194 108.34308961 93.22628784 105.48419189 C93.22830804 103.5002634 93.23121902 101.51633562 93.23498535 99.53240967 C93.23941125 95.37287329 93.23296905 91.21353006 93.21896362 87.05401611 C93.20187164 81.71714656 93.21171139 76.38072959 93.22968102 71.04387665 C93.24051163 66.94670184 93.23707582 62.84963468 93.22929764 58.75245667 C93.22729363 56.78442837 93.2297619 54.81639037 93.2367363 52.84837341 C93.24433888 50.09976239 93.23276343 47.35188852 93.21603394 44.60333252 C93.22210663 43.78661575 93.22817932 42.96989899 93.23443604 42.12843323 C93.20160358 39.22281997 93.13941204 36.76794998 91.83251953 34.13577271 C88.49290592 32.47763363 85.01204372 32.72514043 81.36495972 32.7522583 C80.50127274 32.74700134 79.63758575 32.74174438 78.74772644 32.73632812 C75.88883453 32.72310932 73.03049806 32.73187283 70.17160034 32.74200439 C68.18767184 32.7399842 66.20374407 32.73707322 64.21981812 32.73330688 C60.06028173 32.72888098 55.90093851 32.73532319 51.74142456 32.74932861 C46.40455501 32.76642059 41.06813803 32.75658084 35.7312851 32.73861122 C31.63411029 32.7277806 27.53704312 32.73121641 23.43986511 32.7389946 C21.47183682 32.7409986 19.50379881 32.73853033 17.53578186 32.73155594 C14.78717083 32.72395336 12.03929696 32.73552881 9.29074097 32.7522583 C8.4740242 32.74618561 7.65730743 32.74011292 6.81584167 32.7338562 C3.90744064 32.76672015 1.4555333 32.82653111 -1.17582703 34.14250183 Z " fill="#000000" transform="translate(61.172149658203125,68.85955810546875)"/>
<path d="M0 0 C0.89938382 -0.00367669 1.79876764 -0.00735338 2.72540551 -0.01114148 C5.75153847 -0.02219079 8.77763711 -0.02602428 11.80378723 -0.02983093 C13.96856292 -0.03609465 16.13333753 -0.04274136 18.29811096 -0.04974365 C24.18877473 -0.06716199 30.07943037 -0.07770774 35.97011352 -0.08594918 C39.6495444 -0.09109767 43.32897277 -0.09717347 47.00840187 -0.10346031 C58.51792989 -0.12251488 70.02745149 -0.13674535 81.53699225 -0.14507228 C94.82745733 -0.1548461 108.11772169 -0.18116837 121.40812987 -0.22157317 C131.67744628 -0.25172314 141.94671495 -0.26654011 152.21607476 -0.26985329 C158.35099532 -0.27220507 164.48573807 -0.28118234 170.62061119 -0.30631447 C176.39327907 -0.32958038 182.16565189 -0.3338342 187.93835449 -0.32355309 C190.05551954 -0.32305726 192.17269905 -0.32939148 194.28981972 -0.34310913 C197.18396361 -0.36081006 200.07704654 -0.35373043 202.97119141 -0.34057617 C203.80574189 -0.35154542 204.64029237 -0.36251466 205.50013226 -0.37381631 C211.15549594 -0.31191106 215.61655155 0.88087547 220.30305481 4.14717102 C224.47220138 9.38532953 225.85032905 13.47042524 225.30305481 20.14717102 C223.49312869 25.41956449 221.06853099 29.0923786 216.30305481 32.14717102 C212.3735019 33.45702199 208.62687585 33.29868196 204.53018188 33.30107117 C203.62263096 33.30545342 202.71508004 33.30983567 201.78002757 33.31435072 C198.72625919 33.32774979 195.67251967 33.33392009 192.61872864 33.34004211 C190.43424855 33.3479422 188.24976976 33.3562111 186.06529236 33.36482239 C178.88023629 33.39105314 171.69517436 33.40635103 164.51008606 33.42060852 C162.03783858 33.42596776 159.56559114 33.43134526 157.09334373 33.43674088 C146.81036414 33.45837108 136.52738613 33.47710824 126.24438953 33.48836327 C123.57636321 33.49130258 120.90833691 33.49425456 118.24031067 33.49726868 C117.24564251 33.49838775 117.24564251 33.49838775 116.23088004 33.49952944 C105.49226053 33.51217925 94.75380674 33.54539794 84.01526467 33.58707051 C72.98620715 33.62951904 61.95723878 33.6526542 50.92810076 33.65828383 C44.73724426 33.66193914 38.54666868 33.67398008 32.35589027 33.70638657 C26.53064942 33.73644225 20.70585984 33.74278764 14.88055801 33.73100281 C12.74403515 33.73078187 10.6074915 33.73910373 8.47104073 33.75665665 C5.55043307 33.77934346 2.63146247 33.77105508 -0.28915405 33.75517273 C-1.55265262 33.77599586 -1.55265262 33.77599586 -2.84167641 33.79723966 C-8.91250761 33.71608849 -12.98097413 31.98218933 -17.69694519 28.14717102 C-21.32788629 23.65343204 -21.19928613 19.61173294 -21.04850769 14.02607727 C-20.41122234 8.80741834 -17.90663152 6.23883917 -14.13444519 2.83467102 C-9.60251377 -0.30281996 -5.30435741 -0.00115634 0 0 Z " fill="#000000" transform="translate(260.6969451904297,89.85282897949219)"/>
<path d="M0 0 C0.91969244 -0.00623996 1.83938487 -0.01247993 2.78694677 -0.01890898 C5.86396379 -0.03484424 8.94018923 -0.02223241 12.01721191 -0.00964355 C14.22508709 -0.01506442 16.43295866 -0.02218688 18.64082336 -0.03088379 C24.63457159 -0.04912412 30.6280445 -0.04204651 36.62179756 -0.02936745 C42.89305491 -0.01924356 49.16428861 -0.02863144 55.43554688 -0.03491211 C66.64187797 -0.04265652 77.84809553 -0.03022237 89.05439991 -0.00987476 C99.21084852 0.0079958 109.36711425 0.00489155 119.52355957 -0.0135498 C131.32374606 -0.03496578 143.12384399 -0.04291868 154.92405367 -0.03110075 C161.16838249 -0.02486317 167.41258538 -0.0240376 173.65690613 -0.0372467 C179.52732069 -0.04879733 185.39738973 -0.04079345 191.26776695 -0.01766968 C193.42284763 -0.01237844 195.57795737 -0.01390342 197.7330265 -0.02272034 C200.67372924 -0.03364267 203.6133231 -0.01995171 206.55395508 0 C207.40784868 -0.00892289 208.26174228 -0.01784577 209.14151144 -0.02703905 C214.4970023 0.04349423 217.51535612 0.97594356 221.77697754 4.50793457 C225.85839872 9.03059047 227.1006229 12.2993981 226.98791504 18.45324707 C226.49842006 23.22129074 224.24516797 26.29906134 220.71447754 29.32043457 C216.04472193 32.79791215 212.69930965 32.6563121 207.03497314 32.65510559 C205.66056104 32.66062062 205.66056104 32.66062062 204.25838304 32.66624707 C201.16919803 32.67731424 198.08004662 32.68113287 194.99084473 32.68493652 C192.78356315 32.69119887 190.57628264 32.69784546 188.3690033 32.70484924 C182.35858364 32.72227993 176.34817195 32.73281657 170.33773327 32.74105477 C166.58512164 32.74620037 162.83251252 32.75227629 159.07990265 32.7585659 C148.69144392 32.77543842 138.30298677 32.7900734 127.91451645 32.79731464 C125.21811675 32.79922456 122.52171705 32.80114489 119.82531738 32.80310059 C118.8200422 32.8038262 118.8200422 32.8038262 117.79445842 32.80456647 C106.93805501 32.81286666 96.08176179 32.83820285 85.2254065 32.87068126 C74.08113626 32.90374936 62.93690591 32.92143039 51.79258275 32.92495888 C45.53475167 32.92731294 39.2770947 32.93631968 33.01931 32.96142006 C27.13257539 32.98465009 21.24613016 32.98895432 15.35936165 32.97865868 C13.19781852 32.97816198 11.03626139 32.98452169 8.87476158 32.99821472 C5.92513082 33.01585607 2.97654725 33.00886541 0.0269165 32.99568176 C-1.25801661 33.01213563 -1.25801661 33.01213563 -2.56890798 33.0289219 C-7.93816507 32.97093026 -10.94698844 32.04440471 -15.22302246 28.50793457 C-18.8513591 24.68863285 -19.53302704 21.62514451 -19.72302246 16.50793457 C-19.53302704 11.39072463 -18.8513591 8.32723629 -15.22302246 4.50793457 C-10.10214277 0.27802175 -6.35575063 -0.06641535 0 0 Z " fill="#000000" transform="translate(259.2230224609375,303.4920654296875)"/>
<path d="M0 0 C1.34750062 -0.00734613 2.69499496 -0.01593395 4.04248047 -0.02566528 C7.69136229 -0.04783382 11.34001797 -0.05081431 14.98895788 -0.04891777 C18.04050823 -0.04879784 21.09201105 -0.05737102 24.14354813 -0.06569529 C31.3460567 -0.08491284 38.54844938 -0.08781932 45.75097656 -0.08105469 C53.16857222 -0.07441595 60.58567035 -0.09727489 68.00316513 -0.13436842 C74.38300522 -0.16510914 80.76268564 -0.17642071 87.14259827 -0.1725316 C90.948 -0.17046847 94.75301454 -0.17587508 98.55834579 -0.20042419 C102.13894171 -0.22276152 105.71873137 -0.22075688 109.29933167 -0.20049667 C111.23007027 -0.19548588 113.16082437 -0.21505515 115.09146118 -0.23550415 C122.23500452 -0.16668424 127.32835418 0.55729279 132.77783203 5.41992188 C136.40877313 9.91366086 136.28017297 13.95535996 136.12939453 19.54101562 C135.49490713 24.73676246 132.98953474 27.29909687 129.27783203 30.73242188 C125.3059919 33.41341396 121.94112328 33.5460685 117.21206665 33.56036377 C115.51295891 33.56892899 115.51295891 33.56892899 113.77952576 33.57766724 C111.92171227 33.57934402 111.92171227 33.57934402 110.02636719 33.58105469 C108.71868881 33.58601959 107.41101044 33.5909845 106.06370544 33.59609985 C102.47894352 33.60920096 98.89420031 33.61566414 95.3094182 33.62011051 C93.06873734 33.62304446 90.82806157 33.62714984 88.58738327 33.63161469 C81.57360185 33.64528254 74.55983208 33.65495312 67.54603827 33.65881658 C59.45529237 33.66329808 51.36471534 33.68085317 43.27402079 33.70981717 C37.01572055 33.73144232 30.75746781 33.74152127 24.49913061 33.74285769 C20.76315461 33.74390497 17.02733751 33.74979644 13.29140091 33.76767731 C9.12352514 33.78723836 4.95600254 33.78286573 0.78808594 33.77636719 C-0.44640793 33.78558197 -1.68090179 33.79479675 -2.95280457 33.80429077 C-9.60117121 33.77176575 -14.76442633 33.64769495 -19.86669922 28.88476562 C-24.60677223 22.68620861 -25.09687521 18.19288853 -24.22216797 10.41992188 C-22.61597505 6.44597906 -20.44433234 4.25740688 -16.943573 1.85852051 C-11.34255379 -0.3066882 -5.95545538 -0.01389286 0 0 Z " fill="#000000" transform="translate(264.22216796875,388.580078125)"/>
<path d="M0 0 C1.37045026 -0.00542487 2.74089468 -0.01254958 4.11132812 -0.02124023 C7.82214736 -0.03943355 11.53252041 -0.0324229 15.24334717 -0.01972389 C19.13229549 -0.00957537 23.02120638 -0.0189947 26.91015625 -0.02526855 C33.44017372 -0.03253959 39.97001005 -0.02297163 46.5 -0.00390625 C54.04255185 0.01786159 61.58467116 0.01080982 69.12721252 -0.01121187 C75.61063837 -0.02938147 82.09393423 -0.03191662 88.57737732 -0.0214572 C92.44635098 -0.01523078 96.31512153 -0.01436299 100.18408203 -0.02760315 C103.82206402 -0.03918392 107.45949 -0.03109613 111.09741211 -0.00802612 C113.06428265 -0.00024035 115.03120039 -0.01207597 116.99804688 -0.02453613 C127.73721866 0.0783295 127.73721866 0.0783295 132.5625 4.51757812 C136.19083663 8.33687985 136.87250458 11.40036819 137.0625 16.51757812 C136.87250458 21.63478806 136.19083663 24.6982764 132.5625 28.51757812 C126.80959292 33.81024048 120.62887603 33.08269404 113.125 33.03515625 C111.75454974 33.04058112 110.38410532 33.04770583 109.01367188 33.05639648 C105.30285264 33.0745898 101.59247959 33.06757915 97.88165283 33.05488014 C93.99270451 33.04473162 90.10379362 33.05415095 86.21484375 33.0604248 C79.68482628 33.06769584 73.15498995 33.05812788 66.625 33.0390625 C59.08244815 33.01729466 51.54032884 33.02434643 43.99778748 33.04636812 C37.51436163 33.06453772 31.03106577 33.06707287 24.54762268 33.05661345 C20.67864902 33.05038703 16.80987847 33.04951924 12.94091797 33.0627594 C9.30293598 33.07434017 5.66551 33.06625238 2.02758789 33.04318237 C0.06071735 33.0353966 -1.90620039 33.04723222 -3.87304688 33.05969238 C-14.61221866 32.95682675 -14.61221866 32.95682675 -19.4375 28.51757812 C-23.06583663 24.6982764 -23.74750458 21.63478806 -23.9375 16.51757812 C-23.74750458 11.40036819 -23.06583663 8.33687985 -19.4375 4.51757812 C-13.68459292 -0.77508423 -7.50387603 -0.04753779 0 0 Z " fill="#000000" transform="translate(263.4375,175.482421875)"/>
</svg>
